<?xml version="1.0" encoding="UTF-8" standalone="no"?>
<!-- Created with Inkscape (http://www.inkscape.org/) -->

<svg
   width="1000"
   height="1000"
   viewBox="0 0 264.58333 264.58333"
   version="1.1"
   id="svg674"
   inkscape:version="1.1.1 (3bf5ae0d25, 2021-09-20)"
   sodipodi:docname="mood.svg"
   xmlns:inkscape="http://www.inkscape.org/namespaces/inkscape"
   xmlns:sodipodi="http://sodipodi.sourceforge.net/DTD/sodipodi-0.dtd"
   xmlns="http://www.w3.org/2000/svg"
   xmlns:svg="http://www.w3.org/2000/svg">
  <sodipodi:namedview
     id="namedview676"
     pagecolor="#ffffff"
     bordercolor="#666666"
     borderopacity="1.0"
     inkscape:pageshadow="2"
     inkscape:pageopacity="0.0"
     inkscape:pagecheckerboard="0"
     inkscape:document-units="mm"
     showgrid="false"
     height="300mm"
     units="px"
     inkscape:zoom="0.35455254"
     inkscape:cx="238.32857"
     inkscape:cy="640.24362"
     inkscape:window-width="1366"
     inkscape:window-height="699"
     inkscape:window-x="0"
     inkscape:window-y="32"
     inkscape:window-maximized="1"
     inkscape:current-layer="layer1" />
  <defs
     id="defs671" />
  <g
     inkscape:label="Layer 1"
     inkscape:groupmode="layer"
     id="layer1">
    <path
       d="M 1.5875,132.24481 C 1.5875,60.084048 60.084084,1.5875 132.24482,1.5875 c 72.15918,0 130.65728,58.496548 130.65728,130.65731 0,72.15918 -58.4981,130.6588 -130.65728,130.6588 -72.160736,0 -130.65732,-58.49962 -130.65732,-130.6588"
       style="fill:#ffd05d;fill-opacity:1;fill-rule:nonzero;stroke:none;stroke-width:0.153289"
       id="path470" />
    <path
       d="m 200.60243,20.727138 c 13.01116,20.313831 20.55603,44.466035 20.55603,70.37799 0,72.162242 -58.49653,130.658822 -130.657262,130.658822 -25.061227,0 -48.471488,-7.06202 -68.359183,-19.29449 23.22172,36.25131 63.855503,60.27933 110.102805,60.27933 72.15918,0 130.65728,-58.4981 130.65728,-130.65728 0,-47.099538 -24.92477,-88.372553 -62.29967,-111.364371"
       style="fill:#fdc453;fill-opacity:1;fill-rule:nonzero;stroke:none;stroke-width:0.153289"
       id="path472" />
    <path
       d="m 19.34449,146.02855 c 0,-66.996452 54.311764,-121.306701 121.30824,-121.306701 39.16068,0 73.98025,18.560198 96.1596,47.358584 -20.94693,-36.363154 -60.20875,-60.84494 -105.18988,-60.84494 -66.994901,0 -121.306669,54.310254 -121.306669,121.308227 0,27.83571 9.382799,53.47479 25.148556,73.94653 C 25.210851,188.69033 19.34449,168.04539 19.34449,146.02855"
       style="fill:#ffd77f;fill-opacity:1;fill-rule:nonzero;stroke:none;stroke-width:0.153289"
       id="path474" />
    <path
       d="m 78.688727,152.01293 c -3.3647,-3.26968 -8.757389,0.34631 -7.01449,4.70137 9.654113,24.12152 33.236133,41.16264 60.806653,41.16264 27.10911,0 50.36304,-16.47546 60.30996,-39.96085 1.81495,-4.28288 -3.62067,-7.99251 -6.96086,-4.75195 -19.12125,18.53721 -59.71519,44.9182 -107.141263,-1.15121"
       style="fill:#5e4939;fill-opacity:1;fill-rule:nonzero;stroke:none;stroke-width:0.153289"
       id="path476" />
    <path
       d="M 98.515123,113.51901 C 94.816284,104.27727 85.992967,98.30507 76.038385,98.30507 c -9.739972,0 -18.491244,5.79743 -22.291291,14.76944 -0.728124,1.71834 -0.156427,3.65748 1.38729,4.71514 1.545152,1.05923 3.562409,0.89064 4.903683,-0.40932 7.249048,-7.02983 18.710455,-12.67237 32.147769,0.38021 0.757239,0.73581 1.732167,1.11441 2.716258,1.11441 0.749597,0 1.503794,-0.21944 2.170563,-0.66681 1.542099,-1.03468 2.133786,-2.96151 1.442466,-4.68908"
       style="fill:#303030;fill-opacity:1;fill-rule:nonzero;stroke:none;stroke-width:0.153289"
       id="path478" />
    <path
       d="m 210.76858,113.51901 c -3.6989,-9.24174 -12.52063,-15.21394 -22.47369,-15.21394 -9.7415,0 -18.49276,5.79743 -22.29125,14.76792 -0.72969,1.71682 -0.16077,3.65591 1.38416,4.71666 1.54363,1.06075 3.56398,0.89216 4.90525,-0.40932 7.24905,-7.02983 18.70893,-12.67237 32.14623,0.38021 0.75876,0.73581 1.73369,1.11441 2.71627,1.11441 0.74959,0 1.50374,-0.21944 2.17056,-0.66681 1.54211,-1.03468 2.13531,-2.96151 1.44247,-4.68908"
       style="fill:#303030;fill-opacity:1;fill-rule:nonzero;stroke:none;stroke-width:0.153289"
       id="path480" />
    <path
       d="m 58.994179,151.44115 c 0,12.59728 -10.212079,22.81092 -22.810929,22.81092 -12.598805,0 -22.812403,-10.21364 -22.812403,-22.81092 0,-12.59882 10.213598,-22.81246 22.812403,-22.81246 12.59885,0 22.810929,10.21364 22.810929,22.81246"
       style="fill:#f5a6ac;fill-opacity:1;fill-rule:nonzero;stroke:none;stroke-width:0.153289"
       id="path482" />
    <path
       d="m 251.11724,151.44115 c 0,12.59728 -10.21209,22.81092 -22.81089,22.81092 -12.5988,0 -22.81245,-10.21364 -22.81245,-22.81092 0,-12.59882 10.21365,-22.81246 22.81245,-22.81246 12.5988,0 22.81089,10.21364 22.81089,22.81246"
       style="fill:#f5a6ac;fill-opacity:1;fill-rule:nonzero;stroke:none;stroke-width:0.153289"
       id="path484" />
  </g>
</svg>
