<?xml version="1.0" encoding="UTF-8" standalone="no"?>
<!-- Created with Inkscape (http://www.inkscape.org/) -->

<svg
   version="1.1"
   id="svg2"
   xml:space="preserve"
   width="595.26666"
   height="430.04001"
   viewBox="0 0 595.26666 430.04001"
   sodipodi:docname="very.svg"
   inkscape:version="1.1.1 (3bf5ae0d25, 2021-09-20)"
   xmlns:inkscape="http://www.inkscape.org/namespaces/inkscape"
   xmlns:sodipodi="http://sodipodi.sourceforge.net/DTD/sodipodi-0.dtd"
   xmlns="http://www.w3.org/2000/svg"
   xmlns:svg="http://www.w3.org/2000/svg"><defs
     id="defs6" /><sodipodi:namedview
     id="namedview4"
     pagecolor="#ffffff"
     bordercolor="#666666"
     borderopacity="1.0"
     inkscape:pageshadow="2"
     inkscape:pageopacity="0.0"
     inkscape:pagecheckerboard="0"
     showgrid="false"
     inkscape:zoom="1.2254674"
     inkscape:cx="313.75784"
     inkscape:cy="287.23735"
     inkscape:window-width="1366"
     inkscape:window-height="699"
     inkscape:window-x="0"
     inkscape:window-y="32"
     inkscape:window-maximized="1"
     inkscape:current-layer="g10" /><g
     id="g8"
     inkscape:groupmode="layer"
     inkscape:label="ink_ext_XXXXXX"
     transform="matrix(1.3333333,0,0,-1.3333333,0,430.04)"><g
       id="g10"
       transform="scale(0.1)"><path
         d="m 2334.72,9.53906 c -2.57,0.94144 -5.17,1.82034 -7.73,2.76174 -0.75,-0.9297 -1.54,-1.832 -2.29,-2.76174 H 581.906 C 421.836,204.129 324.871,452 324.871,720.082 c 0,414.698 224.16,777.008 557.918,972.438 259.161,151.75 478.171,363.88 632.311,621.62 279.96,468.11 794.22,779.93 1380.84,773.36 873.92,-9.79 1580.25,-734.67 1568.44,-1608.57 C 4455.23,802.922 4023.34,229.02 3421.08,9.53906 H 2334.72"
         style="fill:#e1d3ed;fill-opacity:1;fill-rule:nonzero;stroke:none"
         id="path12" /><path
         d="M 102.902,1637.34 2.90234,2304.57 H 1032.26 V 1637.34 H 102.902"
         style="fill:#f0c241;fill-opacity:1;fill-rule:nonzero;stroke:none"
         id="path14" /><path
         d="M 102.902,1637.34 2.90234,2304.57 H 1032.26 v -667.23 z"
         style="fill:none;stroke:#171716;stroke-width:5;stroke-linecap:butt;stroke-linejoin:miter;stroke-miterlimit:10;stroke-dasharray:none;stroke-opacity:1"
         id="path16" /><path
         d="m 102.902,1637.34 v 552.21 c 0,63.52 51.5,115.02 115.024,115.02 H 1032.26 V 1637.34 H 102.902"
         style="fill:#f0c241;fill-opacity:1;fill-rule:nonzero;stroke:none"
         id="path18" /><path
         d="m 102.902,1637.34 v 552.21 c 0,63.52 51.5,115.02 115.024,115.02 h 814.334 v -667.23 z"
         style="fill:none;stroke:#171716;stroke-width:5;stroke-linecap:butt;stroke-linejoin:miter;stroke-miterlimit:10;stroke-dasharray:none;stroke-opacity:1"
         id="path20" /><path
         d="M 673.117,2575.21 H 247.586 v 445.96 h 425.531 v -445.96"
         style="fill:#f0c241;fill-opacity:1;fill-rule:nonzero;stroke:none"
         id="path22" /><path
         d="M 673.117,2575.21 H 247.586 v 445.96 h 425.531 z"
         style="fill:none;stroke:#171716;stroke-width:5;stroke-linecap:butt;stroke-linejoin:miter;stroke-miterlimit:10;stroke-dasharray:none;stroke-opacity:1"
         id="path24" /><path
         d="M 1413.16,2937.76 H 1141.2 v 285.02 h 271.96 v -285.02"
         style="fill:#f0c241;fill-opacity:1;fill-rule:nonzero;stroke:none"
         id="path26" /><path
         d="M 1413.16,2937.76 H 1141.2 v 285.02 h 271.96 z"
         style="fill:none;stroke:#171716;stroke-width:5;stroke-linecap:butt;stroke-linejoin:miter;stroke-miterlimit:10;stroke-dasharray:none;stroke-opacity:1"
         id="path28" /><path
         d="M 1272.67,1781.17 H 374.391 v -573.9 h 686.049 l 106.34,-124.06 v 124.06 h 105.89 v 573.9"
         style="fill:#ffffff;fill-opacity:1;fill-rule:nonzero;stroke:none"
         id="path30" /><path
         d="M 1272.67,1781.17 H 374.391 v -573.9 h 686.049 l 106.34,-124.06 v 124.06 h 105.89 z"
         style="fill:none;stroke:#171716;stroke-width:5;stroke-linecap:butt;stroke-linejoin:miter;stroke-miterlimit:10;stroke-dasharray:none;stroke-opacity:1"
         id="path32" /><path
         d="M 1279.07,3085.85 H 822.902 v -629.79 h 284.958 l 95.64,-111.58 v 111.58 h 75.57 v 629.79"
         style="fill:#ffffff;fill-opacity:1;fill-rule:nonzero;stroke:none"
         id="path34" /><path
         d="M 1279.07,3085.85 H 822.902 v -629.79 h 284.958 l 95.64,-111.58 v 111.58 h 75.57 z"
         style="fill:none;stroke:#171716;stroke-width:5;stroke-linecap:butt;stroke-linejoin:miter;stroke-miterlimit:10;stroke-dasharray:none;stroke-opacity:1"
         id="path36" /><path
         d="m 2092.69,2585.42 1082.09,-28.36 c 335.37,-8.79 600.58,-286.97 593.36,-622.38 L 3703.07,5.76172 2439.92,11.8008 l 78.3,861.2812 -170.21,1096.168 -762.55,95.32 507.23,520.85"
         style="fill:#534eaa;fill-opacity:1;fill-rule:nonzero;stroke:none"
         id="path38" /><path
         d="m 2521.63,859.469 -4.9,-2.84 -76.81,-844.8282 1263.15,-6.03908 28.09,847.66028 -1209.53,6.047"
         style="fill:#51b4e9;fill-opacity:1;fill-rule:nonzero;stroke:none"
         id="path40" /><path
         d="m 3251.84,1609.25 v 361.7"
         style="fill:#ffffff;fill-opacity:1;fill-rule:nonzero;stroke:none"
         id="path42" /><path
         d="m 3251.84,1609.25 v 361.7"
         style="fill:none;stroke:#171716;stroke-width:5;stroke-linecap:round;stroke-linejoin:miter;stroke-miterlimit:10;stroke-dasharray:none;stroke-opacity:1"
         id="path44" /><path
         d="m 3176.94,1904.57 73.2,-187.23"
         style="fill:#ffffff;fill-opacity:1;fill-rule:nonzero;stroke:none"
         id="path46" /><path
         d="m 3176.94,1904.57 73.2,-187.23"
         style="fill:none;stroke:#171716;stroke-width:5;stroke-linecap:round;stroke-linejoin:miter;stroke-miterlimit:10;stroke-dasharray:none;stroke-opacity:1"
         id="path48" /><path
         d="m 2062.85,2004.9 29.84,580.52 -507.23,-520.85 z"
         style="fill:#f57684;fill-opacity:1;fill-rule:nonzero;stroke:none"
         id="path50" /><path
         d="m 2851.5,2106.35 c 176.92,0 320.34,143.42 320.34,320.35 0,47.31 -10.34,92.19 -28.76,132.6 l -575.81,15.1 c -23.02,-44.21 -36.11,-94.42 -36.11,-147.7 0,-176.93 143.42,-320.35 320.34,-320.35"
         style="fill:#f57684;fill-opacity:1;fill-rule:nonzero;stroke:none"
         id="path52" /><path
         d="M 2765.03,2517.34 2664.6,2313.08 2821.2,2158.19"
         style="fill:#f57684;fill-opacity:1;fill-rule:nonzero;stroke:none"
         id="path54" /><path
         d="M 2765.03,2517.34 2664.6,2313.08 2821.2,2158.19"
         style="fill:none;stroke:#171716;stroke-width:5;stroke-linecap:butt;stroke-linejoin:miter;stroke-miterlimit:10;stroke-dasharray:none;stroke-opacity:1"
         id="path56" /><path
         d="m 2894.39,2506.7 c 0,-169.91 -137.74,-307.66 -307.66,-307.66 -169.91,0 -307.66,137.75 -307.66,307.66 0,169.91 137.75,307.66 307.66,307.66 169.92,0 307.66,-137.75 307.66,-307.66"
         style="fill:#f57684;fill-opacity:1;fill-rule:nonzero;stroke:none"
         id="path58" /><path
         d="m 2894.39,2506.7 c 0,-169.91 -137.74,-307.66 -307.66,-307.66 -169.91,0 -307.66,137.75 -307.66,307.66 0,169.91 137.75,307.66 307.66,307.66 169.92,0 307.66,-137.75 307.66,-307.66 z"
         style="fill:none;stroke:#171716;stroke-width:5;stroke-linecap:round;stroke-linejoin:miter;stroke-miterlimit:10;stroke-dasharray:none;stroke-opacity:1"
         id="path60" /><path
         d="m 2296.94,2627.98 582.13,-12.77 -122.93,417.67 C 2723.79,3142.79 2574.13,3157.5 2521,3056 l -224.06,-428.02"
         style="fill:#f0c241;fill-opacity:1;fill-rule:nonzero;stroke:none"
         id="path62" /><path
         d="m 2411.52,2424.07 c 3.47,-19.07 -2.43,-36.12 -13.18,-38.08 -10.75,-1.96 -22.28,11.92 -25.76,30.99 -3.47,19.08 2.43,36.13 13.18,38.09 10.75,1.95 22.29,-11.92 25.76,-31"
         style="fill:#171716;fill-opacity:1;fill-rule:nonzero;stroke:none"
         id="path64" /><path
         d="m 2581.31,2439.39 c 3.47,-19.07 -2.43,-36.12 -13.18,-38.08 -10.75,-1.96 -22.29,11.92 -25.76,30.99 -3.47,19.08 2.43,36.13 13.18,38.09 10.75,1.95 22.28,-11.92 25.76,-31"
         style="fill:#171716;fill-opacity:1;fill-rule:nonzero;stroke:none"
         id="path66" /><path
         d="m 2442.48,2502.87 28.03,-70.09 c 3.9,-9.74 4.49,-20.49 1.69,-30.6 l -12.74,-45.95 c -3.65,-13.18 4.68,-26.68 18.1,-29.32 l 31.3,-6.17"
         style="fill:none;stroke:#171716;stroke-width:5;stroke-linecap:round;stroke-linejoin:miter;stroke-miterlimit:10;stroke-dasharray:none;stroke-opacity:1"
         id="path68" /><path
         d="m 2334.6,2496.49 41.49,51.7"
         style="fill:none;stroke:#171716;stroke-width:20;stroke-linecap:round;stroke-linejoin:miter;stroke-miterlimit:10;stroke-dasharray:none;stroke-opacity:1"
         id="path70" /><path
         d="m 2525.46,2552.02 c 1.91,0.64 77.23,-25.53 77.23,-25.53"
         style="fill:none;stroke:#171716;stroke-width:20;stroke-linecap:round;stroke-linejoin:miter;stroke-miterlimit:10;stroke-dasharray:none;stroke-opacity:1"
         id="path72" /><path
         d="m 2528.65,2282.02 c 0,0 19.15,37.02 60,37.66"
         style="fill:none;stroke:#171716;stroke-width:5;stroke-linecap:round;stroke-linejoin:miter;stroke-miterlimit:10;stroke-dasharray:none;stroke-opacity:1"
         id="path74" /><path
         d="m 2957.37,2551.38 c 0,51.16 -44.26,91.99 -96.58,86.27 -40,-4.36 -72.42,-37.04 -76.56,-77.08 -1.23,-11.86 -0.05,-23.27 3.1,-33.84 3.91,-13.16 10.88,-25 20.04,-34.75 -4.95,-6.43 -8.65,-13.88 -10.71,-21.98 -2.06,-8.11 -2.47,-16.86 -0.84,-25.92 4.63,-25.67 26.27,-45.86 52.17,-48.87 36.62,-4.26 67.68,24.24 67.68,60 0,0.94 -0.02,1.88 -0.07,2.81 -0.52,10.96 4.42,21.19 12.62,28.48 17.88,15.9 29.15,39.07 29.15,64.88"
         style="fill:#f57684;fill-opacity:1;fill-rule:nonzero;stroke:none"
         id="path76" /><path
         d="m 2795.82,2444.08 c 4.63,-25.67 26.27,-45.86 52.17,-48.87 36.62,-4.26 67.68,24.24 67.68,60 0,0.94 -0.02,1.88 -0.07,2.81 -0.52,10.96 4.42,21.19 12.62,28.48 17.88,15.9 29.15,39.07 29.15,64.88 0,51.16 -44.26,91.99 -96.58,86.27 -40,-4.36 -72.42,-37.04 -76.56,-77.08 -1.23,-11.86 -0.05,-23.27 3.1,-33.84"
         style="fill:none;stroke:#171716;stroke-width:5;stroke-linecap:butt;stroke-linejoin:miter;stroke-miterlimit:10;stroke-dasharray:none;stroke-opacity:1"
         id="path78" /><path
         d="m 2319.24,2150.44 28.77,-181.19"
         style="fill:none;stroke:#171716;stroke-width:5;stroke-linecap:butt;stroke-linejoin:miter;stroke-miterlimit:10;stroke-dasharray:none;stroke-opacity:1"
         id="path80" /><path
         d="M 3506.48,855.969 V 5.76172"
         style="fill:none;stroke:#171716;stroke-width:5;stroke-linecap:butt;stroke-linejoin:miter;stroke-miterlimit:10;stroke-dasharray:none;stroke-opacity:1"
         id="path82" /><path
         d="M 3251.84,1768.83 3231.41,1268.4 2685.03,604.57 2637,612.992 c -97.41,17.059 -197.7,-1.883 -282.17,-53.301 v 0 l -172.13,-87.73 c -29.89,-15.242 -44.22,-51.563 -29.88,-81.902 14.83,-31.387 52.54,-44.11 83.25,-28.45 l 214.32,99.442 -142.06,-124.379 c -25.24,-22.113 -30.23,-60.832 -8.89,-86.731 22.08,-26.793 61.75,-29.882 87.69,-7.171 l 12.96,11.351 c -2.24,-17.473 2.95,-35.801 16.06,-49.762 22.89,-24.398 61.79,-24.48 86.96,-2.449 l 10.98,9.621 c -5.27,-19.179 -1.13,-40.551 12.95,-56.64 v 0 c 22.3,-25.461 61.01,-28.032 86.47,-5.743 l 116.54,102.043 c 4.88,4.27 8.9,9.161 12.09,14.43 l 140.27,14.481 c 75.71,7.808 145.95,43.07 197.45,99.109 l 576.78,627.609 c 56.44,56.44 88.81,132.54 90.32,212.34 l 16.11,548.3 -511.23,1.37"
         style="fill:#f57684;fill-opacity:1;fill-rule:nonzero;stroke:none"
         id="path84" /><path
         d="M 2730.05,251.191 2613.51,149.148 c -25.46,-22.289 -64.17,-19.718 -86.47,5.743 v 0 c -22.29,25.461 -19.72,64.168 5.74,86.468 l 116.54,102.032"
         style="fill:none;stroke:#171716;stroke-width:5;stroke-linecap:round;stroke-linejoin:miter;stroke-miterlimit:10;stroke-dasharray:none;stroke-opacity:1"
         id="path86" /><path
         d="m 2514.09,211.531 -12.92,-11.312 c -25.46,-22.297 -64.18,-19.727 -86.47,5.73 v 0 c -22.29,25.461 -19.72,64.18 5.74,86.473 l 162.88,142.609"
         style="fill:none;stroke:#171716;stroke-width:5;stroke-linecap:round;stroke-linejoin:miter;stroke-miterlimit:10;stroke-dasharray:none;stroke-opacity:1"
         id="path88" /><path
         d="m 2400.09,254.121 -12.96,-11.351 c -25.46,-22.29 -64.18,-19.731 -86.47,5.742 v 0 c -22.29,25.457 -19.73,64.168 5.74,86.457 l 210.34,184.172"
         style="fill:none;stroke:#171716;stroke-width:5;stroke-linecap:round;stroke-linejoin:miter;stroke-miterlimit:10;stroke-dasharray:none;stroke-opacity:1"
         id="path90" /><path
         d="m 2685.03,604.57 637.62,773.53"
         style="fill:none;stroke:#171716;stroke-width:5;stroke-linecap:butt;stroke-linejoin:miter;stroke-miterlimit:10;stroke-dasharray:none;stroke-opacity:1"
         id="path92" /><path
         d="m 2360.46,2782.36 c -2.45,1.41 -4.99,2.43 -7.54,3.4 l 0.45,0.79 c 10.43,18.07 11.08,40.62 0.35,58.5 -8.48,14.15 -19.88,19.56 -31.56,21.92 9.45,23.24 0.76,50.43 -21.58,63.33 -19.25,11.11 -42.59,8.1 -58.58,-5.56 -24.22,13.08 -54.57,4.71 -68.42,-19.29 l -77.13,-133.6 c -1.79,-3.09 -3.2,-6.29 -4.28,-9.55 l -24.69,-48.78 c -16.28,-32.16 -46.73,-54.79 -82.21,-61.09 l -444.07,-78.92 0.44,-1.33 c -117.6,-22.83 -206.4,-126.32 -206.4,-250.59 0,-141.01 114.31,-255.32 255.32,-255.32 44.92,0 87.1,11.64 123.76,32 l 450.38,222.02 c 137.35,69.39 154.37,282.16 154.37,282.16 l -2.49,1.8 62.57,108.36 c 14.1,24.43 5.73,55.65 -18.69,69.75"
         style="fill:#f57684;fill-opacity:1;fill-rule:nonzero;stroke:none"
         id="path94" /><path
         d="m 2360.46,2782.36 c -2.45,1.41 -4.99,2.43 -7.54,3.4 l 0.45,0.79 c 10.43,18.07 11.08,40.62 0.35,58.5 -8.48,14.15 -19.88,19.56 -31.56,21.92 9.45,23.24 0.76,50.43 -21.58,63.33 -19.25,11.11 -42.59,8.1 -58.58,-5.56 -24.22,13.08 -54.57,4.71 -68.42,-19.29 l -77.13,-133.6 c -1.79,-3.09 -3.2,-6.29 -4.28,-9.55 l -24.69,-48.78 c -16.28,-32.16 -46.73,-54.79 -82.21,-61.09 l -444.07,-78.92 0.44,-1.33 c -117.6,-22.83 -206.4,-126.32 -206.4,-250.59 0,-141.01 114.31,-255.32 255.32,-255.32 44.92,0 87.1,11.64 123.76,32 l 450.38,222.02 c 137.35,69.39 154.37,282.16 154.37,282.16 l -2.49,1.8 62.57,108.36 c 14.1,24.43 5.73,55.65 -18.69,69.75 z"
         style="fill:none;stroke:#171716;stroke-width:5;stroke-linecap:butt;stroke-linejoin:miter;stroke-miterlimit:10;stroke-dasharray:none;stroke-opacity:1"
         id="path96" /><path
         d="m 2217.3,2636.54 73.4,127.13 c 14.1,24.43 45.33,32.79 69.76,18.69 v 0 c 24.42,-14.1 32.79,-45.33 18.69,-69.75 l -73.41,-127.14"
         style="fill:none;stroke:#171716;stroke-width:5;stroke-linecap:round;stroke-linejoin:miter;stroke-miterlimit:10;stroke-dasharray:none;stroke-opacity:1"
         id="path98" /><path
         d="m 2181.2,2692.66 86.65,150.01 c 14.1,24.42 45.33,32.79 69.75,18.69 v 0 c 24.43,-14.1 32.79,-45.33 18.69,-69.75"
         style="fill:none;stroke:#171716;stroke-width:5;stroke-linecap:round;stroke-linejoin:miter;stroke-miterlimit:10;stroke-dasharray:none;stroke-opacity:1"
         id="path100" /><path
         d="m 2125.88,2727.55 104.95,184.06 c 14.1,24.42 45.33,32.79 69.75,18.69 v 0 c 22.35,-12.91 31.26,-40.16 21.8,-63.42"
         style="fill:none;stroke:#171716;stroke-width:5;stroke-linecap:round;stroke-linejoin:miter;stroke-miterlimit:10;stroke-dasharray:none;stroke-opacity:1"
         id="path102" /><path
         d="m 2838.37,2462.53 c 0,0 -11.82,95.71 66.53,96.82"
         style="fill:none;stroke:#171716;stroke-width:5;stroke-linecap:butt;stroke-linejoin:miter;stroke-miterlimit:10;stroke-dasharray:none;stroke-opacity:1"
         id="path104" /><path
         d="m 2838.78,2489.41 c 0,0 19,35.98 51.63,20.03"
         style="fill:none;stroke:#171716;stroke-width:5;stroke-linecap:butt;stroke-linejoin:miter;stroke-miterlimit:10;stroke-dasharray:none;stroke-opacity:1"
         id="path106" /><path
         d="m 4014.33,238.609 c 0,-93.988 -76.2,-170.1871 -170.2,-170.1871 -93.99,0 -170.19,76.1991 -170.19,170.1871 0,94 76.2,170.2 170.19,170.2 94,0 170.2,-76.2 170.2,-170.2 z"
         style="fill:none;stroke:#171716;stroke-width:5;stroke-linecap:butt;stroke-linejoin:miter;stroke-miterlimit:10;stroke-dasharray:none;stroke-opacity:1"
         id="path108" /><path
         d="M 3746.36,8.30859 H 3422.64 L 3337.54,460.23 h 493.92 L 3746.36,8.30859"
         style="fill:#f0c241;fill-opacity:1;fill-rule:nonzero;stroke:none"
         id="path110" /><path
         d="M 1868.01,11.8008 H 809.285 l -300,874.8982 H 1568.01 l 300,-874.8982"
         style="fill:#ffffff;fill-opacity:1;fill-rule:nonzero;stroke:none"
         id="path112" /><path
         d="M 1868.01,11.8008 H 809.285 l -300,874.8982 H 1568.01 Z"
         style="fill:none;stroke:#171716;stroke-width:5;stroke-linecap:butt;stroke-linejoin:miter;stroke-miterlimit:10;stroke-dasharray:none;stroke-opacity:1"
         id="path114" /><path
         d="M 2547.16,10.9492 H 793.117 V 54.3594 H 2547.16 V 10.9492"
         style="fill:#ffffff;fill-opacity:1;fill-rule:nonzero;stroke:none"
         id="path116" /><path
         d="M 2547.16,10.9492 H 793.117 V 54.3594 H 2547.16 Z"
         style="fill:none;stroke:#171716;stroke-width:5;stroke-linecap:butt;stroke-linejoin:miter;stroke-miterlimit:10;stroke-dasharray:none;stroke-opacity:1"
         id="path118" /><path
         d="M 4145.46,5 H 441.625"
         style="fill:#ffffff;fill-opacity:1;fill-rule:nonzero;stroke:none"
         id="path120" /><path
         d="M 4145.46,5 H 441.625"
         style="fill:none;stroke:#171716;stroke-width:10;stroke-linecap:round;stroke-linejoin:miter;stroke-miterlimit:10;stroke-dasharray:none;stroke-opacity:1"
         id="path122" /></g></g></svg>
